<?xml version="1.0" encoding="UTF-8" standalone="no"?>
<svg
   xmlns:dc="http://purl.org/dc/elements/1.1/"
   xmlns:cc="http://creativecommons.org/ns#"
   xmlns:rdf="http://www.w3.org/1999/02/22-rdf-syntax-ns#"
   xmlns:svg="http://www.w3.org/2000/svg"
   xmlns="http://www.w3.org/2000/svg"
   xmlns:sodipodi="http://sodipodi.sourceforge.net/DTD/sodipodi-0.dtd"
   xmlns:inkscape="http://www.inkscape.org/namespaces/inkscape"
   height="44.000004pt"
   width="44.000004pt"
   version="1.1"
   viewBox="0 0 58.666831 58.666053"
   id="svg4"
   sodipodi:docname="checkbox.svg"
   inkscape:version="0.92.4 (unknown)">
  <metadata
     id="metadata10">
    <rdf:RDF>
      <cc:Work
         rdf:about="">
        <dc:format>image/svg+xml</dc:format>
        <dc:type
           rdf:resource="http://purl.org/dc/dcmitype/StillImage" />
        <dc:title></dc:title>
        <cc:license
           rdf:resource="http://creativecommons.org/publicdomain/zero/1.0/" />
      </cc:Work>
      <cc:License
         rdf:about="http://creativecommons.org/publicdomain/zero/1.0/">
        <cc:permits
           rdf:resource="http://creativecommons.org/ns#Reproduction" />
        <cc:permits
           rdf:resource="http://creativecommons.org/ns#Distribution" />
        <cc:permits
           rdf:resource="http://creativecommons.org/ns#DerivativeWorks" />
      </cc:License>
    </rdf:RDF>
  </metadata>
  <defs
     id="defs8" />
  <sodipodi:namedview
     pagecolor="#ffffff"
     bordercolor="#666666"
     borderopacity="1"
     objecttolerance="10"
     gridtolerance="10"
     guidetolerance="10"
     id="namedview6"
     showgrid="false"
     fit-margin-top="2"
     fit-margin-bottom="2"
     fit-margin-right="2"
     fit-margin-left="2"
     units="pt"
     showguides="false" />
  <g
     id="g24">
    <path
       sodipodi:nodetypes="ssssssssssssssssss"
       style="fill:#666666;stroke-width:0.35758284"
       id="path2"
       d="m 4.4545878,2.6656838 c -0.990504,0 -1.787914,0.79741 -1.787914,1.787914 V 54.211252 c 0,0.990503 0.79741,1.787913 1.787914,1.787913 H 54.212242 c 0.990503,0 1.787913,-0.79741 1.787913,-1.787913 V 4.4535978 c 0,-0.990504 -0.79741,-1.787914 -1.787913,-1.787914 z m 3.838295,3.837579 H 50.373232 c 0.990505,0 1.787915,0.79741 1.787915,1.787914 V 50.371527 c 0,0.990505 -0.79741,1.787914 -1.787915,1.787914 H 8.2928828 c -0.990505,0 -1.78863,-0.797409 -1.78863,-1.787914 V 8.2911768 c 0,-0.990504 0.798125,-1.787914 1.78863,-1.787914 z" />
    <path
       sodipodi:nodetypes="sssssssss"
       style="fill:#ffffff;stroke-width:0.35758284"
       id="path2-3"
       d="M 8.2928828,6.5032628 H 50.373236 c 0.990505,0 1.787915,0.7974097 1.787915,1.7879137 V 50.371527 c 0,0.990505 -0.79741,1.787914 -1.787915,1.787914 H 8.2928828 c -0.9905,0 -1.78863,-0.797409 -1.78863,-1.787914 V 8.2911765 c 0,-0.990504 0.79813,-1.7879137 1.78863,-1.7879137 z" />
  </g>
</svg>
