<?xml version="1.0" encoding="UTF-8" standalone="no"?>
<svg
   xmlns:dc="http://purl.org/dc/elements/1.1/"
   xmlns:cc="http://creativecommons.org/ns#"
   xmlns:rdf="http://www.w3.org/1999/02/22-rdf-syntax-ns#"
   xmlns:svg="http://www.w3.org/2000/svg"
   xmlns="http://www.w3.org/2000/svg"
   xmlns:sodipodi="http://sodipodi.sourceforge.net/DTD/sodipodi-0.dtd"
   xmlns:inkscape="http://www.inkscape.org/namespaces/inkscape"
   height="149.15"
   width="149.15"
   version="1.1"
   viewBox="0 0 149.15041 149.14843"
   id="svg4"
   sodipodi:docname="00-check.svg"
   inkscape:version="0.92.4 (unknown)">
  <metadata
     id="metadata10">
    <rdf:RDF>
      <cc:Work
         rdf:about="">
        <dc:format>image/svg+xml</dc:format>
        <dc:type
           rdf:resource="http://purl.org/dc/dcmitype/StillImage" />
        <dc:title></dc:title>
      </cc:Work>
    </rdf:RDF>
  </metadata>
  <defs
     id="defs8" />
  <sodipodi:namedview
     pagecolor="#ffffff"
     bordercolor="#666666"
     borderopacity="1"
     objecttolerance="10"
     gridtolerance="10"
     guidetolerance="10"
     inkscape:pageopacity="0"
     inkscape:pageshadow="2"
     inkscape:window-width="1875"
     inkscape:window-height="1021"
     id="namedview6"
     showgrid="false"
     inkscape:zoom="1.5822998"
     inkscape:cx="75.83898"
     inkscape:cy="74.574997"
     inkscape:window-x="45"
     inkscape:window-y="31"
     inkscape:window-maximized="1"
     inkscape:current-layer="svg4" />
  <path
     d="m 116.412,26.5855 c 1.875,0 3.1348,0.17577 3.7793,0.52734 0.64453,0.35156 0.9668,0.79101 0.9668,1.3184 0,0.82031 -0.9668,2.4316 -2.9004,4.834 -22.617,27.188 -43.594,55.898 -62.93,86.133 -1.3477,2.1094 -4.1016,3.1641 -8.2617,3.1641 -4.2188,0 -6.709,-0.1758 -7.4707,-0.5274 -1.9922,-0.8789 -4.336,-5.3613 -7.0312,-13.447 -3.0469,-8.9649 -4.5703,-14.59 -4.5703,-16.875 0,-2.4609 2.0508,-4.834 6.1524,-7.1191 2.5195,-1.4062 4.7461,-2.1094 6.6797,-2.1094 2.2852,0 4.0137,1.875 5.1855,5.625 2.3438,7.0312 4.0137,10.547 5.0098,10.547 0.76172,0 1.5527,-0.5859 2.373,-1.7578 16.465,-26.367 31.699,-47.695 45.703,-63.984 3.6328,-4.2188 9.4043,-6.3281 17.314,-6.3281 z"
     id="path2"
     inkscape:connector-curvature="0"
     style="fill:#000000"
     sodipodi:nodetypes="ccsccsccscscscccc" />
</svg>
