<?xml version="1.0" encoding="UTF-8" standalone="no"?>
<svg
   xmlns:dc="http://purl.org/dc/elements/1.1/"
   xmlns:cc="http://creativecommons.org/ns#"
   xmlns:rdf="http://www.w3.org/1999/02/22-rdf-syntax-ns#"
   xmlns:svg="http://www.w3.org/2000/svg"
   xmlns="http://www.w3.org/2000/svg"
   xmlns:sodipodi="http://sodipodi.sourceforge.net/DTD/sodipodi-0.dtd"
   xmlns:inkscape="http://www.inkscape.org/namespaces/inkscape"
   width="44pt"
   height="44pt"
   viewBox="0 0 58.666667 58.666667"
   version="1.1"
   id="svg6"
   sodipodi:docname="radio-checked.svg"
   inkscape:version="0.92.4 (unknown)">
  <metadata
     id="metadata12">
    <rdf:RDF>
      <cc:Work
         rdf:about="">
        <dc:format>image/svg+xml</dc:format>
        <dc:type
           rdf:resource="http://purl.org/dc/dcmitype/StillImage" />
        <dc:title />
      </cc:Work>
    </rdf:RDF>
  </metadata>
  <defs
     id="defs10" />
  <sodipodi:namedview
     pagecolor="#ffffff"
     bordercolor="#666666"
     borderopacity="1"
     objecttolerance="10"
     gridtolerance="10"
     guidetolerance="10"
     inkscape:pageopacity="0"
     inkscape:pageshadow="2"
     inkscape:window-width="1875"
     inkscape:window-height="1021"
     id="namedview8"
     showgrid="false"
     units="pt"
     fit-margin-top="2"
     fit-margin-bottom="2"
     fit-margin-right="2"
     fit-margin-left="2"
     inkscape:zoom="8.6145833"
     inkscape:cx="9.7913126"
     inkscape:cy="28.404676"
     inkscape:window-x="45"
     inkscape:window-y="31"
     inkscape:window-maximized="1"
     inkscape:current-layer="svg6" />
  <g
     id="g21">
    <path
       style="fill:#ffffff;stroke-width:1.33333337"
       sodipodi:nodetypes="sssss"
       inkscape:connector-curvature="0"
       id="path2-3-3"
       d="m 29.333333,50.666666 c -11.786667,0 -21.3333315,-9.546666 -21.3333315,-21.333333 0,-11.786667 9.5466645,-21.3333317 21.3333315,-21.3333317 11.786667,0 21.333334,9.5466647 21.333334,21.3333317 0,11.786667 -9.546667,21.333333 -21.333334,21.333333 z" />
    <path
       sodipodi:nodetypes="sssss"
       style="stroke-width:1.11111116"
       inkscape:connector-curvature="0"
       id="path2"
       d="M 29.333333,18.222222 C 23.2,18.222222 18.222222,23.2 18.222222,29.333333 c 0,6.133333 4.977778,11.111111 11.111111,11.111111 6.133333,0 11.111111,-4.977778 11.111111,-11.111111 0,-6.133333 -4.977778,-11.111111 -11.111111,-11.111111 z" />
    <path
       style="fill:#666666;stroke-width:1.33333337"
       sodipodi:nodetypes="ssssssssss"
       inkscape:connector-curvature="0"
       id="path2-3"
       d="M 29.333333,2.6666667 C 14.6,2.6666667 2.6666667,14.6 2.6666667,29.333333 2.6666667,44.066666 14.6,56 29.333333,56 44.066666,56 56,44.066666 56,29.333333 56,14.6 44.066666,2.6666667 29.333333,2.6666667 Z m 0,47.9999993 c -11.786667,0 -21.3333329,-9.546666 -21.3333329,-21.333333 0,-11.786667 9.5466659,-21.3333329 21.3333329,-21.3333329 11.786667,0 21.333333,9.5466659 21.333333,21.3333329 0,11.786667 -9.546666,21.333333 -21.333333,21.333333 z" />
    <path
       style="fill:none;stroke-width:1.11111116"
       inkscape:connector-curvature="0"
       id="path4"
       d="M 2.6666667,2.6666667 H 56 V 56 H 2.6666667 Z" />
    <path
       style="fill:none"
       inkscape:connector-curvature="0"
       id="path4-6"
       d="M 5.3333334,5.3333334 H 53.333333 V 53.333333 H 5.3333334 Z" />
  </g>
</svg>
